<svg width="128" height="128" viewBox="0 0 128 128" fill="none" xmlns="http://www.w3.org/2000/svg">
<path d="M27.2349 13.885C20.0579 13.885 14.7489 20.169 14.9859 26.984C15.2139 33.53 14.9179 42.01 12.7829 48.924C10.6429 55.86 7.02286 60.243 1.10986 60.807V67.194C7.02286 67.757 10.6429 72.141 12.7829 79.077C14.9179 85.991 15.2129 94.471 14.9859 101.017C14.7479 107.832 20.0579 114.115 27.2349 114.115H100.775C107.952 114.115 113.261 107.831 113.024 101.017C112.796 94.471 113.092 85.991 115.226 79.077C117.366 72.142 120.977 67.758 126.89 67.194V60.807C120.977 60.244 117.367 55.86 115.226 48.924C113.092 42.01 112.796 33.53 113.024 26.984C113.261 20.169 107.952 13.885 100.774 13.885H27.2349ZM85.3489 75.571C85.3489 84.955 78.3469 90.644 66.7279 90.644H45.3059C45.1756 90.644 45.0508 90.5923 44.9587 90.5002C44.8666 90.4081 44.8149 90.2832 44.8149 90.153V37.827C44.8147 37.7624 44.8273 37.6985 44.852 37.6388C44.8766 37.5791 44.9127 37.5249 44.9583 37.4792C45.0039 37.4335 45.0581 37.3972 45.1177 37.3725C45.1774 37.3477 45.2413 37.335 45.3059 37.335H66.6149C76.3039 37.335 82.6619 42.581 82.6619 50.635C82.6619 56.288 78.3849 61.348 72.9349 62.235V62.531C80.3529 63.344 85.3489 68.479 85.3489 75.571ZM64.5709 44.096H53.2929V60.018H62.7929C70.1349 60.018 74.1839 57.063 74.1839 51.78C74.1839 46.83 70.7029 44.096 64.5709 44.096V44.096ZM53.2929 66.336V83.884H64.9879C72.6329 83.884 76.6829 80.818 76.6829 75.054C76.6829 69.291 72.5199 66.336 64.4959 66.336H53.2929Z" fill="#2C3E50"/>
</svg>
